<?xml version="1.0" encoding="utf-8"?>
<!-- Generator: Adobe Illustrator 23.0.4, SVG Export Plug-In . SVG Version: 6.00 Build 0)  -->
<svg version="1.1" id="Layer_1" xmlns="http://www.w3.org/2000/svg" xmlns:xlink="http://www.w3.org/1999/xlink" x="0px" y="0px"
	 viewBox="0 0 414.8 102.7" style="enable-background:new 0 0 414.8 102.7;" xml:space="preserve">
<style type="text/css">
	.st0{fill:#FFFFFF;stroke:#FFFFFF;stroke-miterlimit:10;}
	
		.st1{fill-rule:evenodd;clip-rule:evenodd;fill:#FFFFFF;stroke:#FFFFFF;stroke-width:5.4893;stroke-linecap:round;stroke-linejoin:round;stroke-miterlimit:10;}
</style>
<g>
	<path class="st0" d="M10.7,89.4h11.5v3.1H7.5V70.4h3.2V89.4z"/>
	<path class="st0" d="M50.4,92.5h-3.5l-1.7-3.9h-8.9l-1.7,3.9h-3.5l9.6-22.7L50.4,92.5z M43.9,85.5l-3.1-7.4l-3.1,7.4H43.9z"/>
	<path class="st0" d="M79.6,93.5l-16-16.3v15.2h-3.2V69.5l16,16.3V70.4h3.2V93.5z"/>
	<path class="st0" d="M91,92.5V70.4h7.9c1.6,0,3.1,0.3,4.5,0.9c1.4,0.6,2.6,1.3,3.7,2.4c1.1,1,1.9,2.2,2.5,3.5
		c0.6,1.4,0.9,2.8,0.9,4.3c0,1.5-0.3,2.9-0.9,4.3c-0.6,1.3-1.4,2.5-2.5,3.5c-1.1,1-2.3,1.8-3.7,2.4c-1.4,0.6-2.9,0.9-4.5,0.9H91z
		 M98.9,89.8c2.3,0,4.2-0.8,5.9-2.3c1.6-1.5,2.4-3.4,2.4-5.6s-0.8-4.1-2.4-5.6c-1.6-1.6-3.6-2.3-5.9-2.3h-4.8v15.9H98.9z"/>
	<path class="st0" d="M130,92.9c-1.9,0-3.6-0.4-5.2-1.3c-1.9-1.1-3.2-2.7-3.9-4.9l3.1-0.9c0.4,1.5,1.3,2.5,2.5,3.2
		c1,0.6,2.2,0.8,3.5,0.8c0.2,0,0.4,0,0.5,0c0.1,0,0.3,0,0.5-0.1c0.6-0.1,1.1-0.2,1.6-0.4c1.3-0.6,2-1.6,2.1-2.9
		c0.1-0.7-0.2-1.3-0.7-1.9c-0.8-0.9-2.1-1.4-3.9-1.5c-3.3-0.2-5.7-1-7.3-2.3c-1.2-1-1.8-2.3-1.8-3.9c0-2.1,0.9-3.8,2.6-5.1
		c1.5-1.1,3.4-1.7,5.6-1.7c2.6,0,4.8,0.9,6.6,2.7c0.5,0.6,1,1.2,1.4,1.9c0.2,0.4,0.4,0.8,0.7,1.3l-3,1.1c-0.2-0.5-0.4-0.9-0.6-1.2
		c-0.2-0.3-0.5-0.6-0.8-1c-1.1-1.1-2.5-1.7-4.2-1.7c-0.5,0-1,0.1-1.6,0.2c-0.6,0.1-1.2,0.3-1.7,0.6c-1.2,0.7-1.8,1.6-1.8,2.9
		c0,1.8,2,2.9,6.1,3.1c2.7,0.2,4.7,1,6.1,2.6c1.1,1.2,1.6,2.6,1.4,4.1c-0.2,2.1-1.1,3.6-2.8,4.8C133.8,92.4,132.1,92.9,130,92.9
		L130,92.9z"/>
	<path class="st0" d="M160.4,89.8c1.7,0,3.2-0.4,4.6-1.2c1.4-0.8,2.5-2,3.3-3.6l2.9,1.2c-1.1,2.1-2.6,3.8-4.5,4.9
		c-1.9,1.2-4.1,1.8-6.4,1.8c-1.6,0-3.2-0.3-4.7-0.9c-1.4-0.6-2.7-1.4-3.8-2.5c-1.1-1.1-2-2.3-2.6-3.6c-0.6-1.4-0.9-2.9-0.9-4.4
		c0-1.5,0.3-3,0.9-4.5c0.6-1.4,1.5-2.6,2.6-3.6c1.1-1.1,2.4-1.9,3.8-2.5c1.5-0.6,3-0.9,4.7-0.9c2.3,0,4.4,0.6,6.4,1.8
		c1.9,1.1,3.4,2.8,4.5,4.9l-2.9,1.2c-0.9-1.6-2-2.8-3.3-3.6c-1.4-0.8-2.9-1.2-4.6-1.2c-2.4,0-4.5,0.8-6.2,2.5
		c-1.7,1.6-2.6,3.6-2.6,5.9c0,2.3,0.9,4.3,2.6,5.9C155.9,89,158,89.8,160.4,89.8z"/>
	<path class="st0" d="M199.4,92.5h-3.5l-1.7-3.9h-8.9l-1.7,3.9h-3.5l9.6-22.7L199.4,92.5z M192.9,85.5l-3.1-7.4l-3.1,7.4H192.9z"/>
	<path class="st0" d="M217.6,70.4c2.3,0,4.2,0.8,5.8,2.3c1.6,1.5,2.4,3.4,2.4,5.6c0,2.2-0.8,4-2.4,5.6c-1.6,1.5-3.6,2.3-5.8,2.3h-5
		v6.3h-3.2V70.4H217.6z M217.6,83.1c1.4,0,2.6-0.5,3.5-1.4c1-0.9,1.5-2.1,1.5-3.4c0-1.3-0.5-2.4-1.5-3.4c-1-0.9-2.1-1.4-3.5-1.4h-5
		v9.5H217.6z"/>
	<path class="st0" d="M236.4,92.5V70.4h3.2v22.1H236.4z"/>
	<path class="st0" d="M270.3,93.5l-16-16.3v15.2h-3.2V69.5l16,16.3V70.4h3.2V93.5z"/>
	<path class="st0" d="M304.7,81.1c0,1.8-0.3,3.4-0.9,4.8c-0.6,1.4-1.5,2.6-2.6,3.6c-1.1,1.1-2.4,1.9-3.8,2.4c-1.5,0.6-3,0.9-4.7,0.9
		c-1.6,0-3.2-0.3-4.7-0.9c-1.4-0.6-2.7-1.4-3.8-2.4c-1.1-1.1-2-2.3-2.6-3.6c-0.6-1.4-0.9-2.9-0.9-4.4c0-1.6,0.3-3,0.9-4.5
		c0.6-1.4,1.5-2.6,2.6-3.6c1.1-1.1,2.4-1.9,3.8-2.4c1.5-0.6,3-0.9,4.7-0.9c2.6,0,4.9,0.7,7,2.2c2,1.4,3.5,3.4,4.5,6h-3.5
		c-0.8-1.6-1.9-2.8-3.3-3.6c-1.4-0.9-3-1.3-4.7-1.3c-2.4,0-4.4,0.8-6.1,2.4c-1.7,1.6-2.5,3.6-2.5,5.8c0,2.3,0.8,4.2,2.5,5.8
		c1.7,1.6,3.7,2.4,6.1,2.4c2,0,3.7-0.6,5.2-1.7c1.5-1.1,2.5-2.4,2.9-3.8h-8.5v-3.2H304.7z"/>
</g>
<g>
	<path class="st0" d="M9.1,4.3v6.1h7.6v2H9.1v8.1H7V2.3h11.6v2H9.1z"/>
	<path class="st0" d="M31,14.3c1.1,0.7,1.9,1.5,2.6,2.6c0.6,1.1,1,2.3,1,3.6v0h-2.1v0c0-1.5-0.6-2.8-1.7-3.8
		c-1.1-1.1-2.5-1.6-4.1-1.6H23v5.4h-2.1V2.3h6.8c1.9,0,3.5,0.6,4.8,1.9c1.3,1.3,2,2.8,2,4.5c0,1.2-0.3,2.3-1,3.3
		C32.9,13,32.1,13.8,31,14.3z M23,4.3v8.8h4.7c1.3,0,2.4-0.4,3.3-1.3c0.9-0.9,1.4-1.9,1.4-3.1c0-1.2-0.5-2.2-1.4-3.1
		c-0.9-0.9-2-1.3-3.3-1.3H23z"/>
	<path class="st0" d="M42.7,20.1c-1.2-0.5-2.3-1.2-3.2-2c-0.9-0.9-1.7-1.9-2.2-3c-0.5-1.2-0.8-2.4-0.8-3.7c0-1.3,0.3-2.5,0.8-3.7
		c0.5-1.1,1.2-2.1,2.2-3c0.9-0.9,2-1.5,3.2-2c1.2-0.5,2.6-0.8,3.9-0.8c1.4,0,2.7,0.3,3.9,0.8c1.2,0.5,2.3,1.1,3.2,2
		c0.9,0.9,1.7,1.9,2.2,3c0.5,1.2,0.8,2.4,0.8,3.7c0,1.3-0.3,2.5-0.8,3.7c-0.5,1.1-1.2,2.1-2.2,3c-0.9,0.9-2,1.6-3.2,2
		c-1.2,0.5-2.6,0.7-3.9,0.7C45.2,20.8,43.9,20.6,42.7,20.1z M41,6.1c-1.6,1.5-2.3,3.2-2.3,5.3c0,2.1,0.8,3.8,2.3,5.3
		c1.6,1.5,3.4,2.2,5.6,2.2c2.2,0,4.1-0.7,5.6-2.2c1.6-1.5,2.3-3.2,2.3-5.3c0-2.1-0.8-3.8-2.3-5.3c-1.6-1.5-3.4-2.2-5.6-2.2
		C44.4,3.9,42.5,4.6,41,6.1z"/>
	<path class="st0" d="M79.6,20.5h-2.2l-3.1-12l-5.5,12.7L63.4,8.5l-3.1,12h-2.2l4.8-18.6l5.9,13.9l6-13.9L79.6,20.5z"/>
	<path class="st0" d="M101.3,2.3v2h-6.9v16.2h-2.1V4.3h-7v-2H101.3z"/>
	<path class="st0" d="M118,2.3v18.2h-2.1v-8.1h-10.5v8.1h-2.1V2.3h2.1v8.1h10.5V2.3H118z"/>
	<path class="st0" d="M132.8,18.5v2h-11.6V2.3h11.6v2h-9.4v6.1h7.6v2h-7.6v6.2H132.8z"/>
</g>
<path class="st0" d="M45.5,47.6c-0.7,6.3-3.6,11.2-8.7,14.8c-4.3,3-8.9,4.5-13.9,4.4c-6.2-0.1-11.6-2.1-16.1-6.2
	C2.2,56.5-0.1,51.6,0,46c0.1-5.8,2.2-10.7,6.6-14.7c4.4-4,9.7-5.9,16.1-5.9c4.6,0,8.5,0.8,11.7,2.5c3.4,1.8,6.2,4.7,8.6,8.9H38
	c-3.8-5.2-9-7.7-15.7-7.6c-4.8,0.1-9,1.7-12.6,4.8c-3.7,3.3-5.6,7.2-5.7,11.8C4,50.4,5.8,54.3,9.4,57.6c3.5,3.2,7.9,5,13.2,5.3
	c3.6,0.3,7.1-0.8,10.6-3.1c3.5-2.3,5.9-5.2,7.1-8.6l-23.9-0.1v-3.6L45.5,47.6z"/>
<path class="st0" d="M77.3,66H72L57.5,47.9h4.2c3.7,0,6.7-0.9,8.9-2.7c2.2-1.8,3.2-4.1,3.1-6.8c-0.1-2.5-1.1-4.5-2.9-6.1
	c-1.9-1.7-4.6-2.6-7.8-2.6h-9.6V66H49V25.9h13.7c4.7,0,8.5,1.3,11.3,3.7c2.8,2.5,4.2,5.6,4.1,9.4c-0.1,3.1-1.2,5.8-3.4,8.1
	c-2.2,2.2-4.9,3.5-8.1,3.8l-1.2,0.1L77.3,66z"/>
<path class="st0" d="M102.9,66.8c-6.1,0-11.4-2-15.9-6c-4.4-4-6.7-8.8-6.7-14.4c0-5.8,2.2-10.7,6.5-14.9c4.4-4.1,9.6-6.2,15.8-6.2
	s11.4,2,15.9,5.9c4.5,3.9,6.7,8.7,6.7,14.4c0,5.8-2.2,10.8-6.6,15C114.2,64.7,109,66.8,102.9,66.8z M121.1,45.9
	c-0.1-4.6-1.9-8.6-5.6-11.8c-3.6-3.2-7.9-4.8-12.9-4.8c-4.9,0-9.2,1.7-12.7,5c-3.6,3.3-5.3,7.2-5.3,11.9c0,4.6,1.8,8.6,5.3,11.8
	c3.6,3.3,7.8,5,12.8,5c5.1,0.1,9.4-1.6,13-5C119.4,54.6,121.2,50.6,121.1,45.9z"/>
<path class="st0" d="M158.3,53c0,3.9-1.4,7.2-4.3,9.9c-2.8,2.7-6.3,3.9-10.4,3.9c-4-0.1-7.4-1.4-10.1-4c-2.7-2.7-4.1-6-4.1-9.9v-27
	h4.2v26.3c0,3,0.9,5.6,2.9,7.7c1.9,2,4.4,3.1,7.3,3.1c2.8,0,5.3-0.9,7.2-2.9c2-1.9,3-4.3,3-7.1V25.8h4.3V53z"/>
<path class="st0" d="M196.6,66h-4.8l-24.6-34.9V66h-4.4V25.9h5.8l23.6,33.7V25.4h4.4V66z"/>
<path class="st0" d="M201.3,66V25.9h12.4c6.8,0,12.4,1.9,16.8,5.7c4.4,3.8,6.6,8.6,6.6,14.3c0,5.5-2.1,10.2-6.3,14.1
	c-4.2,3.9-9.2,5.9-15,5.9H201.3z M215.6,62.3c4.8,0,8.9-1.7,12.3-5c3.4-3.3,5.1-7.3,4.9-11.8c-0.1-4.4-2-8.2-5.6-11.2
	c-3.6-3-7.9-4.5-12.8-4.5h-8.9v32.6H215.6z"/>
<g>
	<path class="st0" d="M274.2,52.2c0,3.6-1.4,6.7-4.1,9.1c-2.7,2.5-6.1,3.6-9.9,3.6c-3.8,0-7.1-1.2-9.7-3.7c-2.6-2.5-3.9-5.5-3.9-9.1
		V27.2h4v24.2c0,2.8,0.9,5.1,2.8,7.1c1.9,1.9,4.2,2.8,7,2.8c2.7,0,5-0.9,6.9-2.6c1.9-1.8,2.9-3.9,2.9-6.5V27.2h4.1V52.2z"/>
	<path class="st0" d="M260.4,66.9c-0.1,0-0.2,0-0.3,0c-4.4-0.1-8.1-1.5-11-4.2c-3-2.9-4.6-6.4-4.6-10.6V25.2h8.1v26.2
		c0,2.3,0.7,4.1,2.2,5.7c1.5,1.5,3.3,2.2,5.6,2.2c2.2,0,4-0.7,5.5-2.1c1.5-1.4,2.2-3,2.2-5.1v-27h8.1v27c0,4.2-1.6,7.8-4.8,10.6
		C268.4,65.6,264.7,66.9,260.4,66.9z"/>
</g>
<g>
	<path class="st0" d="M286.3,64.3h-4.2v-37h13.1c4,0,7.4,1.1,10.1,3.3c2.7,2.2,4,4.9,3.9,8.3c-0.1,3-1.3,5.5-3.8,7.6
		c-2.5,2.1-5.5,3.1-8.9,3.1h-10.1V64.3z M295.7,46.2c2.6,0,4.8-0.7,6.6-2.2c2-1.5,2.9-3.5,2.7-6c-0.1-2.1-1.1-3.8-3-5.2
		c-1.9-1.4-4.1-2.1-6.6-2.1h-9.1v15.4H295.7z"/>
	<path class="st0" d="M288.3,66.3h-8.3v-41h15.1c4.5,0,8.3,1.3,11.4,3.8c3.2,2.5,4.7,5.8,4.7,9.9c-0.1,3.6-1.6,6.7-4.6,9.1
		c-2.8,2.3-6.3,3.5-10.2,3.5h-8.1V66.3z M288.3,44.2h7.3c2.2,0,3.9-0.6,5.4-1.8c1.5-1.2,2.1-2.5,2-4.3c-0.1-1.5-0.8-2.7-2.2-3.7
		c-1.5-1.1-3.3-1.7-5.4-1.7h-7.1V44.2z"/>
</g>
<path class="st1" d="M193.9,62"/>
<g>
	<path class="st0" d="M375.7,77.2c0.1-10.8,0.1-22.9,0.2-27.6c0.1-4.2,1.3-8.4,3.5-12.5h-9.3c-3.2,6.3-3.6,12.1-3.7,12.7l-0.2,7.3
		v33.7c0,1.5,1.2,2.6,2.6,2.6h6.7V80.5C375.6,79.4,375.6,78.3,375.7,77.2z"/>
	<path class="st0" d="M398,48.6c-2.8,0.5-6.4,1.6-9.7,4.4c-5.6,4.8-8.7,12.9-9.3,24.2c0,6.4-0.1,12.4-0.1,16h8.2
		C386,66,393,53.8,398,48.6z"/>
	<path class="st0" d="M404.5,65.1c-1.5,0.2-3.3,0.8-5.2,2.2c-3.7,2.8-8,9.6-8.6,26h9.6C398.2,77,401.8,68.9,404.5,65.1z"/>
	<path class="st0" d="M408.5,37h-25.1c-2.3,3.8-4,8-4.1,12.6c0,2.2-0.1,6.1-0.1,10.7c1.7-4,4.1-7.3,7-9.8c7.8-6.7,16.9-5.4,17.2-5.4
		c0.8,0.1,1.3,0.7,1.4,1.5c0.1,0.8-0.3,1.5-1,1.8c-0.1,0-9.4,4.4-12.4,24.7c1.6-3.6,3.6-6.3,6.1-8.2c5.3-4,10.7-2.6,10.9-2.6
		c0.6,0.2,1,0.7,1.1,1.3c0.1,0.6-0.2,1.2-0.7,1.5c-0.1,0-8.4,5.6-5.4,28.2h5c1.5,0,2.6-1.2,2.6-2.6v-51
		C411.1,38.2,409.9,37,408.5,37z"/>
	<path class="st0" d="M317.9,59.2c-0.4-0.4-0.6-1.1-0.4-1.6c0.2-0.6,0.7-1,1.3-1c0.3,0,7.1-0.7,13.5,4.9c2.8,2.5,5.1,5.9,6.8,10
		c-0.3-4.3-0.8-8.4-1.5-11.9c-2.6-12.1-12.7-17.1-12.8-17.2c-0.7-0.3-1.1-1.2-0.9-1.9c0.2-0.8,0.9-1.3,1.7-1.2
		c0.7,0,15.6,1.2,24.5,14.2l0.2-16.3h-30.4c-1.5,0-2.6,1.2-2.6,2.6v51c0,1.5,1.2,2.6,2.6,2.6h8.4C329.1,70.5,318,59.3,317.9,59.2z"
		/>
	<path class="st0" d="M353.4,93.3h6.1c1.5,0,2.6-1.2,2.6-2.6v-51c0-1.5-1.2-2.6-2.6-2.6h-5.8l-0.3,22L353.4,93.3z"/>
	<path class="st0" d="M330.3,63.8c-2.8-2.5-5.6-3.5-7.8-3.9c3.5,4.9,9.5,15.9,8.9,33.4h8c0-0.5,0-1.1,0-1.7
		C339.2,78.4,336.1,69,330.3,63.8z"/>
	<path class="st0" d="M332.9,44.3c3.2,3.1,6.6,7.9,8,14.6c2.3,10.9,2.1,28.3,2,34.5h7.2V60.1C345.9,50.7,338.5,46.3,332.9,44.3z"/>
	<path class="st0" d="M401,16.7c0.8,0,1.4,0.5,1.6,1.3c0.2,0.7-0.2,1.5-0.8,1.9c-0.1,0.1-9.5,5.4-16.1,13.8h17
		c1.3,0,2.4-1.1,2.4-2.4V13c0-1.3-1.1-2.4-2.4-2.4h-18.2c-1.3,0-2.4,1.1-2.4,2.4v7.5c4.7-2.3,10.6-3.8,17.9-3.8
		C400.4,16.7,400.7,16.7,401,16.7z"/>
	<path class="st0" d="M382.4,32.4c1.7-2.2,3.6-4.4,5.8-6.5c2.4-2.2,4.7-4.1,6.7-5.5c-5.1,0.6-9.4,2-12.8,3.9v7
		C382.1,31.7,382.2,32.1,382.4,32.4z"/>
	<path class="st0" d="M358,9.1c4-4.1,9.4-6.1,15.9-5.8c0.7,0,1.3,0.4,1.5,1.1c0.2,0.6,0.1,1.3-0.4,1.8c-0.1,0.1-8.9,9.5-8.9,26.6
		v1.1h2.1c2.2-3.9,5.4-7.9,9.9-11V1.7c0-0.9-0.8-1.7-1.7-1.7h-28.1c-0.9,0-1.7,0.8-1.7,1.7v30.4c0,0.9,0.8,1.7,1.7,1.7h1.9
		C350.2,29.8,350.5,16.8,358,9.1z"/>
	<path class="st0" d="M378.2,32.1v-5.2c-2.6,2.1-4.6,4.5-6.2,6.9h4.5C377.4,33.8,378.2,33.1,378.2,32.1z"/>
	<path class="st0" d="M370.3,6.8c-4,0.5-7.3,2-9.9,4.7c-6.6,6.8-6.9,18.9-6.8,22.4h9.1v-1.1C362.8,19.8,367.4,11,370.3,6.8z"/>
	<path class="st0" d="M339.6,93.1c0-0.5,0-1,0-1.5c0,0.6,0,1.2,0,1.7h0.1C339.6,93.2,339.6,93.1,339.6,93.1z"/>
</g>
<path class="st0" d="M412.9,102.7H6.5c-1,0-1.9-0.8-1.9-1.9c0-1,0.8-1.9,1.9-1.9h406.4c1,0,1.9,0.8,1.9,1.9
	C414.8,101.9,414,102.7,412.9,102.7z"/>
</svg>
